<svg width="50" height="56" viewBox="0 0 50 56" fill="none" xmlns="http://www.w3.org/2000/svg">
<path d="M33.6287 45.2959C33.6287 45.2959 38.7326 41.0061 36.2076 34.8978L33.6826 33.9521L30.9429 42.3871L33.6287 45.2959Z" fill="#67647E"/>
<path opacity="0.1" d="M33.9007 33.6611L34.5051 33.8873L31.8151 42.1687L34.1621 44.7101C33.9677 44.9036 33.8469 45.0049 33.8469 45.0049L31.1602 42.096L33.9007 33.6611Z" fill="black"/>
<path d="M10.5786 36.361L11.2417 39.0151C11.2417 39.0151 15.9267 39.6259 19.0503 39.2421C19.6025 39.1637 20.1326 38.9725 20.6076 38.6802C20.8713 38.5243 21.2878 38.4565 21.857 38.8828C22.8321 39.6177 27.6175 45.4974 26.8425 51.5976C26.7823 52.0572 26.5724 52.4843 26.2451 52.8126C25.9178 53.1409 25.4915 53.3522 25.032 53.4138C24.0778 53.5438 23.1655 53.889 22.3641 54.4231L19.9959 56L44.2782 55.4692L41.7573 52.4175C41.7573 52.4175 40.0326 50.9582 38.7056 50.8251C38.3185 50.7867 37.9992 50.4315 37.7412 49.9488C36.2296 47.1192 34.4216 44.4587 32.4617 41.9182C31.0342 40.0677 29.8362 38.1176 29.9481 36.8927C30.2135 33.9732 29.9481 29.1968 29.9481 29.1968L24.9063 28.5337C24.9063 28.5337 25.5694 34.9034 19.4659 36.495C13.3625 38.0866 10.5786 36.361 10.5786 36.361Z" fill="#67647E"/>
<path d="M37.7517 37.141C42.3623 37.141 46.1 33.4033 46.1 28.7927C46.1 24.182 42.3623 20.4443 37.7517 20.4443C33.141 20.4443 29.4033 24.182 29.4033 28.7927C29.4033 33.4033 33.141 37.141 37.7517 37.141Z" fill="#43A017"/>
<path d="M28.8733 34.8603C33.4839 34.8603 37.2216 31.1226 37.2216 26.5119C37.2216 21.9013 33.4839 18.1636 28.8733 18.1636C24.2626 18.1636 20.5249 21.9013 20.5249 26.5119C20.5249 31.1226 24.2626 34.8603 28.8733 34.8603Z" fill="#43A017"/>
<path d="M19.0998 34.9418C23.7105 34.9418 27.4482 31.2041 27.4482 26.5935C27.4482 21.9828 23.7105 18.2451 19.0998 18.2451C14.4891 18.2451 10.7515 21.9828 10.7515 26.5935C10.7515 31.2041 14.4891 34.9418 19.0998 34.9418Z" fill="#43A017"/>
<path d="M15.9235 37.141C20.5342 37.141 24.2719 33.4033 24.2719 28.7927C24.2719 24.182 20.5342 20.4443 15.9235 20.4443C11.3129 20.4443 7.5752 24.182 7.5752 28.7927C7.5752 33.4033 11.3129 37.141 15.9235 37.141Z" fill="#43A017"/>
<path d="M10.5476 37.8744C15.1582 37.8744 18.8959 34.1368 18.8959 29.5261C18.8959 24.9154 15.1582 21.1777 10.5476 21.1777C5.9369 21.1777 2.19922 24.9154 2.19922 29.5261C2.19922 34.1368 5.9369 37.8744 10.5476 37.8744Z" fill="#43A017"/>
<path d="M8.34835 31.2768C12.959 31.2768 16.6967 27.5391 16.6967 22.9284C16.6967 18.3178 12.959 14.5801 8.34835 14.5801C3.73768 14.5801 0 18.3178 0 22.9284C0 27.5391 3.73768 31.2768 8.34835 31.2768Z" fill="#43A017"/>
<path d="M10.7917 23.62C15.4024 23.62 19.1401 19.8824 19.1401 15.2717C19.1401 10.661 15.4024 6.92334 10.7917 6.92334C6.18104 6.92334 2.44336 10.661 2.44336 15.2717C2.44336 19.8824 6.18104 23.62 10.7917 23.62Z" fill="#43A017"/>
<path d="M15.4343 23.62C20.045 23.62 23.7826 19.8824 23.7826 15.2717C23.7826 10.661 20.045 6.92334 15.4343 6.92334C10.8236 6.92334 7.08594 10.661 7.08594 15.2717C7.08594 19.8824 10.8236 23.62 15.4343 23.62Z" fill="#43A017"/>
<path d="M18.1223 20.1991C22.7329 20.1991 26.4706 16.4615 26.4706 11.8508C26.4706 7.24012 22.7329 3.50244 18.1223 3.50244C13.5116 3.50244 9.77393 7.24012 9.77393 11.8508C9.77393 16.4615 13.5116 20.1991 18.1223 20.1991Z" fill="#43A017"/>
<path d="M24.9641 23.9457C29.5747 23.9457 33.3124 20.208 33.3124 15.5974C33.3124 10.9867 29.5747 7.24902 24.9641 7.24902C20.3534 7.24902 16.6157 10.9867 16.6157 15.5974C16.6157 20.208 20.3534 23.9457 24.9641 23.9457Z" fill="#43A017"/>
<path d="M40.9284 31.2768C45.5391 31.2768 49.2768 27.5391 49.2768 22.9284C49.2768 18.3178 45.5391 14.5801 40.9284 14.5801C36.3178 14.5801 32.5801 18.3178 32.5801 22.9284C32.5801 27.5391 36.3178 31.2768 40.9284 31.2768Z" fill="#43A017"/>
<path d="M36.1228 27.1225C40.7334 27.1225 44.4711 23.3848 44.4711 18.7741C44.4711 14.1635 40.7334 10.4258 36.1228 10.4258C31.5121 10.4258 27.7744 14.1635 27.7744 18.7741C27.7744 23.3848 31.5121 27.1225 36.1228 27.1225Z" fill="#43A017"/>
<path d="M33.0275 22.9682C37.6382 22.9682 41.3759 19.2305 41.3759 14.6198C41.3759 10.0092 37.6382 6.27148 33.0275 6.27148C28.4169 6.27148 24.6792 10.0092 24.6792 14.6198C24.6792 19.2305 28.4169 22.9682 33.0275 22.9682Z" fill="#43A017"/>
<path d="M27.1633 16.6967C31.774 16.6967 35.5116 12.959 35.5116 8.34835C35.5116 3.73768 31.774 0 27.1633 0C22.5526 0 18.8149 3.73768 18.8149 8.34835C18.8149 12.959 22.5526 16.6967 27.1633 16.6967Z" fill="#43A017"/>
<path d="M38.0774 23.62C42.688 23.62 46.4257 19.8824 46.4257 15.2717C46.4257 10.661 42.688 6.92334 38.0774 6.92334C33.4667 6.92334 29.729 10.661 29.729 15.2717C29.729 19.8824 33.4667 23.62 38.0774 23.62Z" fill="#43A017"/>
<path opacity="0.1" d="M46.0632 16.5789C46.0632 16.5789 38.2881 12.8918 33.5835 19.4264L46.0632 16.5789Z" fill="black"/>
<path opacity="0.1" d="M25.641 9.10939C25.641 9.10939 17.0403 8.84971 15.3516 16.722L25.641 9.10939Z" fill="black"/>
<path opacity="0.1" d="M14.9499 26.1899C14.9499 26.1899 7.17479 22.502 2.47021 29.035L14.9499 26.1899Z" fill="black"/>
</svg>
